# xmcd
#
# Track frame offsets:
#	225
#	12929
#	24216
#	39308
#	51546
#	63667
#	75552
#	91869
#	104207
#	114050
#	129640
#	146596
#	161380
#	176077
#	188866
#	203500
#	220223
#	232184
#	245616
#	257276
#
# Disc length: 3627 seconds
#
# Revision: 0
# Processed by: cddbd v1.4PL0 Copyright (c) Steve Scherf et al.
# Submitted via: audiograbber 1.81.02
#
DISCID=110e2814
DTITLE=Various Artist - San Telmo 1
DYEAR=2002
DGENRE=Tango
TTITLE0=Roberto Goyeneche  - Cantor de Mi Barrio
TTITLE1=Roberto Goyeneche - Viejo Ciego
TTITLE2=Roberto Goyeneche - Confession
TTITLE3=Roberto Goyeneche - Amurado
TTITLE4=Guillermo Galve - Motivo Sentimental
TTITLE5=Guillermo Galve - El Abrojito
TTITLE6=Guillermo Galve - La Ultima
TTITLE7=Guillermo Galve - Me Quede Mirandola
TTITLE8=Reynaldo Martin - Suerte Loca
TTITLE9=Reynaldo Martin - Sexto Piso
TTITLE10=Reynaldo Martin - Con Su melancolia
TTITLE11=Reynaldo Martin - Des Pues
TTITLE12=Gabriel Reynal - El Pescante
TTITLE13=Gabriel Reynal - Que Nadie Sepa Mi Sufrir
TTITLE14=Gabriel Reynal - Uno
TTITLE15=Gabriel Reynal - Mi Buenos Aires Querido
TTITLE16=Carlos Varela - Me Da Pena Confesarlo
TTITLE17=Carlos Varela - Volio Una Noche
TTITLE18=Carlos Varela - El Titere
TTITLE19=Carlos Varela - Jacinto Chiclana
EXTD=Compilation cd for male tango singers
EXTT0=
EXTT1=
EXTT2=
EXTT3=
EXTT4=
EXTT5=
EXTT6=
EXTT7=
EXTT8=
EXTT9=
EXTT10=
EXTT11=
EXTT12=
EXTT13=
EXTT14=
EXTT15=
EXTT16=
EXTT17=
EXTT18=
EXTT19=
PLAYORDER=
